<?xml version="1.0" standalone="no"?>
<!DOCTYPE svg PUBLIC "-//W3C//DTD SVG 20010904//EN"
 "http://www.w3.org/TR/2001/REC-SVG-20010904/DTD/svg10.dtd">
<svg version="1.0" xmlns="http://www.w3.org/2000/svg"
 width="900.000000pt" height="339.000000pt" viewBox="0 0 900.000000 339.000000"
 preserveAspectRatio="xMidYMid meet">
<metadata>
Created by potrace 1.10, written by Peter Selinger 2001-2011
</metadata>
<g transform="translate(0.000000,339.000000) scale(0.100000,-0.100000)"
fill="#cc0000" stroke="none">
<path d="M505 2488 c-51 -17 -89 -39 -123 -72 -69 -64 -67 -51 -67 -466 l0
-375 23 -37 c86 -138 304 -182 362 -74 18 35 48 34 61 -3 10 -28 13 -29 82
-33 40 -3 77 -3 82 -1 6 2 10 106 9 286 l0 282 -150 -4 c-92 -2 -152 -7 -156
-14 -4 -6 -5 -34 -3 -61 2 -28 4 -56 5 -63 0 -6 10 -13 23 -15 21 -3 22 -8 25
-108 3 -109 -6 -145 -38 -155 -26 -8 -49 4 -64 34 -17 34 -14 668 4 700 7 14
21 21 40 21 45 0 54 -27 46 -137 -3 -51 -3 -93 2 -93 9 0 252 235 252 244 0 3
-10 18 -22 32 -42 47 -116 95 -173 109 -63 17 -175 18 -220 3z m-50 -340 c3
-62 11 -140 16 -172 12 -68 4 -147 -19 -191 l-16 -30 -8 40 c-9 48 1 465 12
465 4 0 11 -51 15 -112z m355 -344 c0 -42 -13 -44 -30 -3 -11 26 -11 32 0 39
21 13 30 2 30 -36z m-360 -84 c0 -31 -16 -41 -26 -15 -5 13 11 45 22 45 2 0 4
-13 4 -30z m360 -30 c0 -22 -4 -40 -10 -40 -11 0 -14 63 -3 73 11 12 13 8 13
-33z m-335 -65 c0 -22 -22 -30 -44 -16 -21 14 -5 43 21 39 15 -2 23 -10 23
-23z m270 -25 c3 -6 -1 -13 -10 -16 -19 -8 -30 0 -20 15 8 14 22 14 30 1z"/>
<path d="M5672 2486 c-24 -7 -70 -33 -101 -58 -90 -72 -92 -83 -90 -488 l1
-334 25 -53 c27 -57 96 -123 129 -123 11 0 30 -7 42 -16 15 -10 27 -12 38 -6
9 5 36 7 59 4 35 -3 47 0 65 18 19 19 20 25 10 51 -15 36 -8 46 23 32 12 -6
29 -13 38 -16 9 -3 19 -19 22 -35 6 -29 7 -30 84 -34 43 -3 81 -3 85 -1 4 2 7
131 7 287 l1 283 -143 -4 c-78 -3 -148 -6 -154 -8 -9 -3 -13 -26 -13 -70 0
-60 2 -66 25 -77 24 -11 25 -14 24 -107 -1 -53 -4 -109 -8 -126 -5 -27 -10
-30 -49 -33 -23 -2 -42 -7 -42 -13 0 -5 -8 -9 -18 -9 -10 0 -23 -5 -29 -11 -6
-6 -16 -8 -22 -5 -18 11 -13 36 7 36 10 0 27 6 37 14 18 13 19 31 20 368 1
195 5 359 9 366 8 13 44 16 70 6 13 -5 16 -25 16 -115 0 -60 3 -109 8 -109 12
0 242 232 242 244 -1 33 -123 128 -180 141 -61 13 -193 14 -238 1z m-42 -256
c0 -38 -4 -50 -15 -50 -16 0 -19 19 -9 69 10 48 24 37 24 -19z m0 -94 c0 -7 3
-28 6 -45 6 -27 4 -31 -15 -31 -18 0 -21 6 -21 45 0 33 4 45 15 45 8 0 15 -6
15 -14z m10 -156 c0 -37 -4 -52 -16 -57 -9 -3 -20 0 -25 8 -12 20 -11 25 9 45
9 10 18 22 18 28 3 23 4 26 9 26 3 0 5 -23 5 -50z m348 -87 c-4 -22 -22 -20
-26 1 -2 10 3 16 13 16 10 0 15 -7 13 -17z m-325 -16 c3 -8 1 -20 -4 -28 -5
-8 -6 -21 -3 -31 7 -23 -15 -34 -23 -11 -3 10 -13 26 -21 35 -8 10 -12 24 -9
33 8 19 53 20 60 2z m327 -57 c0 -11 7 -23 15 -26 18 -7 20 -34 3 -34 -12 0
-58 58 -58 73 0 4 9 7 20 7 13 0 20 -7 20 -20z m-385 -70 c0 -33 -4 -45 -15
-45 -9 0 -14 8 -12 20 1 13 -7 26 -25 37 l-28 17 25 10 c44 18 55 10 55 -39z
m3 -108 c3 -27 0 -32 -17 -32 -16 0 -21 6 -21 28 0 53 33 56 38 4z m384 -83
c-3 -30 -8 -39 -20 -37 -25 5 -26 34 -3 57 12 12 22 21 24 21 1 0 1 -18 -1
-41z"/>
<path d="M1613 2482 l-123 -3 0 -445 0 -444 -24 -11 c-17 -8 -29 -8 -45 1
l-22 11 2 442 1 442 -136 3 -136 3 5 -441 c6 -427 6 -441 27 -478 53 -92 85
-116 188 -144 119 -32 114 -34 271 115 l139 132 -3 409 c-1 264 -6 410 -12
410 -5 1 -65 0 -132 -2z m-275 -854 c-3 -25 -17 -32 -37 -19 -19 12 -6 41 19
41 16 0 21 -5 18 -22z m-40 -84 c24 -7 30 -39 8 -47 -15 -6 -60 36 -49 46 8 8
12 8 41 1z m182 -54 c11 -7 12 -12 3 -21 -15 -15 -47 -7 -51 14 -4 19 23 23
48 7z"/>
<path d="M2683 2483 l-173 -3 1 -525 c1 -506 2 -525 20 -530 11 -4 33 -4 49 0
29 6 316 9 355 3 16 -2 21 3 23 29 3 28 0 32 -25 35 -31 3 -35 21 -6 27 26 5
33 20 33 74 l0 47 -90 0 -90 0 0 354 0 355 47 38 c26 21 55 45 65 53 29 23 23
50 -9 48 -16 -1 -106 -4 -200 -5z m5 -516 c3 -22 -1 -27 -17 -27 -15 0 -21 6
-21 23 0 46 33 49 38 4z m-33 -237 c3 -6 -1 -17 -9 -26 -9 -9 -14 -20 -11 -25
10 -15 35 -10 35 7 0 8 5 12 10 9 8 -5 8 -11 0 -20 -16 -19 -9 -81 9 -77 17 3
41 -16 41 -34 0 -21 -37 -17 -43 5 -3 14 -11 17 -31 14 -24 -5 -26 -3 -26 29
0 43 -9 53 -26 30 -10 -13 -15 -14 -25 -5 -10 10 -9 16 4 31 9 10 17 28 17 40
0 18 11 26 42 31 4 0 10 -4 13 -9z m-69 -161 c3 -6 -1 -18 -10 -27 -15 -15
-17 -15 -32 0 -19 19 -11 38 16 38 10 0 22 -5 26 -11z m228 -31 c8 -13 7 -21
-2 -30 -11 -11 -16 -9 -28 6 -8 11 -14 26 -14 34 0 18 30 11 44 -10z m54 -16
c2 -14 -2 -22 -12 -22 -19 0 -29 17 -22 36 8 22 30 12 34 -14z m-214 -11 c3
-5 -1 -12 -10 -15 -25 -10 -34 -7 -34 9 0 16 35 21 44 6z"/>
<path d="M3466 2482 l-189 -2 -32 -33 c-17 -17 -64 -61 -103 -96 -40 -36 -71
-70 -69 -75 2 -7 39 -11 93 -11 89 0 89 0 87 -25 0 -14 -1 -99 -2 -190 0 -91
-1 -172 -1 -180 -1 -8 -3 -99 -4 -201 -2 -102 -7 -195 -10 -206 -4 -12 -2 -24
4 -28 9 -6 211 -10 268 -6 22 2 10 55 -15 66 -29 12 -29 21 -2 28 20 5 20 9
18 374 l-2 368 84 1 84 0 0 109 c0 65 -4 109 -10 109 -5 1 -95 0 -199 -2z
m-18 -152 c1 -14 -11 -46 -29 -73 -30 -48 -31 -49 -51 -31 -24 22 -48 67 -48
88 0 20 56 45 95 43 24 -2 31 -7 33 -27z m-33 -286 c34 -22 32 -44 -4 -44 -35
0 -42 8 -34 38 6 26 7 26 38 6z m21 -255 c10 -17 -13 -36 -27 -22 -12 12 -4
33 11 33 5 0 12 -5 16 -11z m-21 -119 c11 -18 -17 -41 -44 -38 -30 4 -41 34
-14 41 32 8 52 7 58 -3z m-5 -92 c17 -2 26 -10 28 -25 4 -26 -10 -30 -28 -8
-12 14 -15 14 -30 0 -16 -14 -50 -21 -50 -10 0 3 7 22 16 43 13 33 17 35 28
20 6 -9 23 -18 36 -20z"/>
<path d="M3826 2482 c-21 -4 -20 -8 8 -89 14 -37 32 -95 41 -128 21 -78 45
-160 60 -210 7 -22 21 -67 30 -100 9 -33 25 -80 34 -105 14 -39 15 -69 9 -225
-4 -99 -5 -186 -3 -192 2 -7 20 -13 39 -13 38 0 58 16 107 88 17 23 38 42 47
42 25 1 56 49 54 84 -5 109 -1 185 12 216 8 19 22 62 31 95 9 33 23 78 31 100
8 23 14 48 14 57 0 10 6 32 14 50 8 18 22 60 31 93 10 33 23 76 30 95 7 19 18
51 24 70 27 77 37 70 -102 70 -90 0 -128 -4 -134 -12 -9 -15 -18 -86 -35 -272
-11 -119 -10 -130 6 -141 14 -11 16 -22 11 -57 -14 -91 -70 -114 -100 -41 -22
52 -20 93 4 93 11 0 23 -4 26 -10 3 -5 15 -10 26 -10 10 0 19 5 19 10 0 6 -8
10 -18 10 -35 0 -42 21 -42 126 0 55 -5 115 -11 132 -6 17 -14 61 -17 99 l-7
68 -111 5 c-62 3 -119 4 -128 2z m362 -624 c2 -15 -1 -35 -7 -45 -9 -16 -11
-15 -20 9 -5 14 -15 29 -20 33 -23 14 -12 36 17 33 21 -2 28 -9 30 -30z m-70
-129 c2 -25 -3 -40 -18 -54 -20 -18 -20 -18 -20 3 0 13 6 22 15 22 8 0 15 7
15 15 0 9 -7 18 -15 21 -21 9 -19 36 3 32 12 -2 18 -14 20 -39z m19 -106 c3
-7 -5 -20 -16 -30 -12 -9 -21 -23 -21 -30 0 -7 -4 -13 -9 -13 -16 0 -24 21
-12 33 6 6 11 22 11 35 0 18 5 23 22 20 12 -2 23 -8 25 -15z"/>
<path d="M2000 2468 c0 -7 0 -223 0 -480 0 -341 -3 -468 -11 -468 -7 0 -9 -9
-5 -25 5 -21 3 -25 -17 -25 -34 0 -62 -23 -54 -45 5 -12 13 -15 25 -10 9 5 86
9 171 11 84 1 155 5 158 7 2 3 4 238 4 523 l-1 519 -135 3 c-104 2 -135 0
-135 -10z m143 -384 c9 -9 -4 -35 -14 -28 -5 3 -9 12 -9 20 0 14 12 19 23 8z
m35 -457 c2 -12 -3 -17 -17 -17 -12 0 -21 6 -21 13 0 31 32 34 38 4z m-40 -29
c22 -22 13 -43 -24 -54 -31 -10 -34 -9 -28 5 3 9 9 26 11 39 6 24 22 29 41 10z"/>
<path d="M6360 2473 c0 -5 -1 -242 -1 -528 l1 -520 97 4 c54 2 103 7 110 13 7
5 13 5 17 0 8 -13 196 -13 226 0 25 11 26 14 27 106 l2 94 -92 -2 c-51 -2 -99
-2 -107 -1 -13 1 -15 18 -13 104 2 56 3 108 3 114 0 7 12 16 27 19 15 4 57 35
93 69 36 34 77 69 92 79 51 34 38 77 -18 56 -14 -6 -64 -11 -112 -13 l-87 -2
1 100 0 100 100 3 101 3 -2 102 -1 102 -232 3 c-128 1 -232 -1 -232 -5z m218
-135 c5 -26 -36 -78 -60 -78 -17 0 -18 -3 -8 -15 14 -17 6 -50 -10 -40 -5 3
-10 31 -10 61 0 41 5 59 21 75 24 24 62 22 67 -3z m-58 -194 c0 -42 13 -69 52
-107 15 -16 28 -39 28 -52 0 -24 -87 -165 -101 -165 -14 0 -19 320 -6 353 11
28 27 10 27 -29z m69 -505 c21 -17 22 -22 10 -30 -19 -12 -36 -11 -44 1 -4 6
-15 8 -26 5 -22 -7 -25 9 -6 30 17 20 38 18 66 -6z m-110 -37 c5 -10 19 -18
31 -19 23 -2 49 -29 50 -50 0 -20 17 -15 23 7 3 12 14 20 26 20 31 0 26 -27
-9 -45 -34 -17 -60 -20 -60 -5 0 6 -11 16 -25 22 -14 6 -25 19 -25 30 0 11 -7
18 -19 18 -22 0 -35 15 -26 30 9 15 23 12 34 -8z m-49 -62 c0 -5 -9 -10 -21
-10 -11 0 -17 5 -14 10 3 6 13 10 21 10 8 0 14 -4 14 -10z m340 -30 c0 -6 -7
-13 -15 -16 -8 -3 -17 -15 -21 -26 -4 -15 -9 -17 -17 -8 -9 8 -8 15 6 24 9 7
17 18 17 25 0 6 7 11 15 11 8 0 15 -5 15 -10z"/>
<path d="M7220 2403 c-1 -43 -7 -96 -15 -118 -8 -22 -15 -64 -15 -94 0 -55
-16 -159 -30 -196 -5 -13 -25 -25 -56 -34 -27 -8 -57 -18 -67 -23 -18 -9 -18
-11 4 -34 12 -13 27 -24 34 -24 20 0 77 -60 71 -75 -3 -9 -10 -55 -16 -103 -6
-48 -15 -103 -19 -122 -5 -19 -12 -59 -15 -88 -6 -50 -6 -53 21 -63 19 -8 43
-8 75 -2 28 6 54 6 63 0 9 -5 27 -6 40 -3 25 6 24 0 44 194 5 56 13 107 16
112 15 24 46 430 37 488 -5 36 -18 42 -27 12 -3 -11 -12 -20 -20 -20 -33 0
-28 95 7 126 14 13 34 18 74 17 60 -2 89 -19 106 -63 11 -28 1 -103 -13 -94
-5 3 -7 9 -4 13 7 12 -32 44 -44 37 -12 -8 -4 -286 10 -322 5 -14 9 -51 9 -82
0 -31 4 -73 10 -92 10 -39 31 -202 33 -269 2 -52 29 -78 51 -49 7 10 17 14 22
9 5 -5 45 -11 89 -13 96 -4 90 -30 49 222 -9 52 -19 111 -23 130 -10 52 -5 63
48 92 53 30 77 53 63 61 -17 11 -98 37 -114 37 -10 0 -19 10 -22 23 -2 12 -9
46 -15 75 -6 30 -11 72 -11 95 0 23 -5 58 -11 77 -5 19 -14 76 -19 127 -4 50
-11 97 -15 102 -4 7 -75 11 -206 11 l-199 0 0 -77z m35 -472 c7 -12 -12 -24
-25 -16 -11 7 -4 25 10 25 5 0 11 -4 15 -9z m385 -31 c0 -11 -6 -20 -14 -20
-18 0 -29 16 -21 30 11 18 35 11 35 -10z m-424 -31 c35 -21 43 -46 22 -67 -23
-23 -40 -14 -33 18 6 27 4 30 -19 30 -24 0 -35 18 -19 33 9 10 12 9 49 -14z
m411 -34 c2 -6 -3 -20 -12 -30 -13 -17 -16 -18 -25 -5 -18 27 -12 52 12 48 12
-2 23 -8 25 -13z m-357 -85 c0 -12 -28 -25 -36 -17 -9 9 6 27 22 27 8 0 14 -5
14 -10z m340 -151 c0 -14 -5 -19 -17 -17 -26 5 -29 38 -4 38 15 0 21 -6 21
-21z m-360 -66 c0 -6 -4 -15 -10 -18 -5 -3 -10 -15 -10 -25 0 -13 -5 -17 -14
-14 -15 6 -31 68 -21 83 7 12 55 -11 55 -26z m364 -18 c4 -10 -1 -15 -14 -15
-20 0 -26 11 -13 23 10 11 20 8 27 -8z"/>
<path d="M8025 1952 l0 -527 130 4 c72 2 132 7 135 11 3 4 3 34 2 65 -3 48 -7
58 -28 67 -31 14 -30 22 2 37 l26 12 -7 144 -7 145 34 0 c60 0 72 -23 70 -146
-1 -58 2 -114 8 -124 6 -11 6 -21 1 -25 -5 -3 -9 -49 -8 -102 l2 -97 33 -8
c34 -9 42 -25 17 -34 -8 -4 -15 -12 -15 -19 0 -7 7 -15 15 -19 8 -3 15 -14 15
-24 0 -11 -7 -25 -15 -32 -36 -30 -8 -78 37 -64 18 5 19 12 14 58 -9 67 -2 84
30 78 20 -4 24 -1 24 22 0 31 13 33 40 6 14 -14 20 -33 20 -64 0 -73 53 -103
75 -42 8 25 6 31 -18 50 -30 24 -35 61 -12 92 8 10 15 29 15 42 0 14 8 26 23
31 40 15 50 35 38 78 -14 49 -14 46 9 73 35 41 20 80 -31 80 -15 0 -39 4 -53
10 -25 9 -26 12 -20 69 6 56 5 62 -24 99 -25 30 -41 41 -72 46 -35 6 -41 10
-38 29 2 17 11 23 38 25 39 4 73 30 90 72 16 38 8 224 -12 274 -23 58 -69 100
-131 119 -43 14 -93 17 -253 17 l-199 0 0 -528z m185 379 c0 -11 -4 -23 -10
-26 -5 -3 -10 -16 -10 -29 0 -13 -8 -30 -18 -39 -17 -16 -18 -22 -4 -109 8
-51 23 -107 33 -124 24 -39 24 -67 2 -105 -21 -35 -28 -36 -47 -6 -15 23 -20
105 -17 294 1 100 1 101 24 95 22 -5 22 -5 3 16 -23 27 -14 52 19 52 18 0 25
-5 25 -19z m160 -47 c15 -14 30 -153 22 -200 -4 -25 -85 -114 -104 -114 -11 0
-13 29 -11 161 2 89 6 166 9 171 8 13 65 1 84 -18z m117 -198 c-4 -9 -11 -16
-17 -16 -11 0 -14 33 -3 44 11 10 26 -11 20 -28z m-15 -71 c0 -5 -5 -11 -11
-13 -6 -2 -11 4 -11 13 0 9 5 15 11 13 6 -2 11 -8 11 -13z m15 -201 c-9 -9
-28 6 -21 18 4 6 10 6 17 -1 6 -6 8 -13 4 -17z m-331 5 c10 -17 -13 -36 -27
-22 -12 12 -4 33 11 33 5 0 12 -5 16 -11z m-21 -57 c16 -12 36 -52 30 -62 -3
-5 -1 -11 5 -15 5 -3 10 -15 10 -26 0 -28 -53 -26 -72 4 -39 60 -19 134 27 99z
m350 -22 c3 -5 17 -10 30 -10 22 0 65 -41 65 -62 0 -23 -34 -20 -54 5 -12 15
-31 27 -43 27 -25 0 -37 15 -29 35 6 17 22 20 31 5z m-241 -36 c4 -9 1 -23 -5
-31 -10 -12 -14 -12 -26 0 -16 15 -7 47 12 47 7 0 16 -7 19 -16z m263 -102
c-5 -41 6 -72 26 -72 7 0 19 -5 27 -10 13 -8 12 -13 -8 -32 -12 -13 -31 -34
-41 -48 -18 -22 -21 -23 -34 -10 -16 16 -7 60 13 60 5 0 10 7 10 15 0 9 -9 15
-25 15 -21 0 -25 5 -25 29 0 17 -4 33 -10 36 -14 9 -12 42 3 48 6 3 25 6 41 6
28 1 28 0 23 -37z m93 -34 c0 -20 -26 -24 -33 -5 -2 6 0 20 5 31 8 15 12 16
19 5 5 -8 9 -22 9 -31z m-390 -23 c0 -8 -4 -15 -10 -15 -5 0 -10 7 -10 15 0 8
5 15 10 15 6 0 10 -7 10 -15z m413 -31 c8 -8 -3 -34 -14 -34 -5 0 -9 9 -9 20
0 19 11 26 23 14z m-412 -24 c10 0 19 -6 19 -13 0 -8 -13 -13 -35 -13 -28 0
-35 4 -35 19 0 13 5 17 16 13 9 -3 24 -6 35 -6z"/>
<path d="M4877 2423 c-4 -3 -7 -31 -7 -60 0 -30 -6 -66 -14 -81 -8 -15 -80
-92 -160 -172 -91 -90 -146 -152 -146 -165 0 -12 38 -56 96 -112 83 -80 101
-92 123 -87 25 5 26 5 6 -11 -20 -16 -19 -17 26 -58 52 -48 65 -76 74 -164 5
-44 11 -63 21 -63 21 0 42 51 37 87 -7 44 12 72 135 198 94 96 102 103 113 84
7 -14 7 -29 0 -50 -12 -36 -5 -59 19 -59 21 0 37 37 22 52 -5 5 -7 40 -4 77 3
43 0 76 -8 91 -11 21 -16 22 -81 16 -88 -8 -122 -1 -114 25 5 14 1 19 -12 19
-11 0 -23 -4 -28 -9 -6 -5 -28 -11 -50 -13 -35 -3 -40 -6 -43 -30 l-3 -28 75
0 76 0 0 -28 c0 -32 -63 -99 -119 -126 -42 -20 -41 -20 -41 4 0 12 -29 50 -70
91 -41 42 -70 79 -70 91 0 27 150 178 176 178 20 0 124 -92 124 -110 0 -5 15
-10 33 -10 17 0 48 -4 66 -10 36 -10 61 0 61 25 0 8 -48 60 -106 116 -127 125
-143 149 -145 220 -1 30 -6 60 -12 67 -10 13 -39 16 -50 5z m41 -223 c1 -9
-12 -23 -31 -33 -33 -18 -174 -158 -213 -212 -17 -23 -25 -27 -34 -19 -21 21
-2 47 119 168 117 115 151 135 159 96z m237 -300 c11 -17 -4 -45 -32 -62 -16
-9 -62 -51 -103 -92 -63 -63 -80 -76 -107 -76 -45 0 -42 21 5 42 34 16 123 98
184 170 24 28 43 35 53 18z"/>
<path d="M8803 1648 c-13 -6 -23 -16 -23 -21 0 -6 -10 -31 -22 -55 -21 -44
-21 -45 -2 -59 49 -35 54 -43 54 -88 0 -41 -3 -46 -40 -67 -44 -25 -51 -43
-20 -53 14 -5 29 2 51 24 17 17 38 31 48 31 39 0 47 40 12 68 -13 10 -13 16
-3 32 19 31 15 40 -25 57 -38 15 -38 15 -16 30 18 12 21 19 12 34 -5 11 -6 19
0 19 13 0 22 27 15 45 -7 17 -11 18 -41 3z"/>
<path d="M4877 1433 c-12 -11 -7 -40 9 -53 13 -11 19 -10 36 8 18 17 19 23 8
36 -13 16 -42 21 -53 9z"/>
<path d="M8333 1357 c-4 -8 -20 -22 -35 -32 -18 -11 -28 -26 -28 -41 0 -45 41
-41 66 8 8 16 26 33 40 38 14 6 24 16 22 23 -6 17 -55 21 -65 4z"/>
<path d="M8508 1245 c-3 -3 -3 -15 -1 -26 7 -26 38 -21 38 6 0 19 -25 32 -37
20z"/>
<path d="M8440 1185 c-8 -10 -9 -19 -3 -27 24 -30 22 -75 -3 -109 -13 -18 -24
-39 -24 -45 0 -22 46 -64 69 -64 31 0 37 27 17 83 -17 48 -17 49 3 64 21 14
29 63 11 63 -6 0 -16 11 -22 25 -13 28 -30 32 -48 10z"/>
<path d="M8603 1143 c-18 -7 -16 -52 3 -60 23 -9 51 23 38 44 -12 19 -23 24
-41 16z"/>
<path d="M3045 1087 c-18 -15 -28 -36 -32 -63 -5 -39 -2 -45 41 -90 47 -49 61
-77 54 -110 -5 -28 -26 -27 -53 2 -22 23 -28 26 -35 14 -6 -8 -10 -20 -10 -26
0 -20 46 -54 74 -54 37 0 86 52 86 91 0 33 -34 91 -74 128 -16 15 -26 35 -26
53 0 31 20 37 40 13 16 -19 29 -19 37 1 7 19 -34 64 -58 64 -10 0 -30 -10 -44
-23z"/>
<path d="M3573 1103 c-23 -8 -14 -31 15 -37 20 -5 30 -16 38 -41 6 -19 7 -38
3 -42 -10 -11 -15 -195 -6 -210 10 -16 43 -17 52 -3 4 6 6 70 6 142 -1 135 4
158 40 158 21 0 27 29 7 31 -54 4 -145 5 -155 2z"/>
<path d="M4173 1103 c-27 -5 -30 -29 -7 -62 16 -22 16 -25 0 -52 -16 -27 -16
-32 -2 -60 14 -28 14 -33 0 -54 -9 -14 -14 -39 -12 -62 2 -31 7 -39 25 -41 29
-4 44 32 36 83 -5 33 -4 37 13 33 14 -2 20 -13 22 -38 5 -68 11 -80 38 -80 25
0 25 2 19 43 -4 23 -16 60 -26 81 l-19 39 25 25 c36 36 35 91 -2 118 -30 22
-75 33 -110 27z m75 -90 c-2 -44 -7 -58 -18 -58 -11 0 -15 11 -14 41 1 48 9
74 24 74 7 0 10 -21 8 -57z"/>
<path d="M4753 1103 c-20 -7 -15 -30 7 -36 19 -5 20 -14 20 -131 0 -106 -3
-126 -17 -134 -10 -6 -14 -16 -10 -26 9 -23 115 -23 124 -1 3 9 -2 21 -11 28
-15 11 -17 31 -17 132 0 111 1 120 22 135 17 13 19 19 8 25 -14 9 -106 15
-126 8z"/>
<path d="M5184 1095 c-4 -9 3 -23 16 -33 23 -18 41 -90 58 -229 4 -34 11 -65
15 -69 24 -24 57 48 57 127 0 24 7 53 15 63 8 11 15 34 15 52 0 31 21 64 41
64 5 0 9 7 9 15 0 20 -46 30 -76 16 -21 -9 -23 -14 -14 -31 9 -17 7 -45 -5
-87 -3 -7 -11 -10 -20 -7 -11 5 -15 21 -15 64 0 51 -2 58 -22 64 -39 10 -68 7
-74 -9z"/>
<path d="M5848 1103 c-38 -4 -44 -13 -39 -53 1 -8 3 -76 4 -150 l2 -135 68 -3
c54 -2 68 0 73 13 9 22 3 25 -42 28 l-39 2 -3 58 -3 57 31 0 c39 0 41 27 3 32
-27 3 -28 5 -28 58 0 49 2 55 20 53 52 -6 90 25 49 41 -16 6 -28 6 -96 -1z"/>
<path d="M2259 965 c-23 -6 -44 -15 -46 -21 -5 -15 78 -26 94 -13 7 7 19 7 30
1 10 -4 52 -8 93 -8 73 1 75 2 75 26 l0 25 -102 0 c-56 0 -120 -5 -144 -10z"/>
<path d="M6480 967 c0 -8 9 -22 20 -32 18 -16 33 -17 137 -12 159 9 178 28 47
47 -103 15 -204 13 -204 -3z"/>
</g>
</svg>
